<?xml version="1.0" standalone="no"?>
<!DOCTYPE svg PUBLIC "-//W3C//DTD SVG 20010904//EN"
 "http://www.w3.org/TR/2001/REC-SVG-20010904/DTD/svg10.dtd">
<svg version="1.0" xmlns="http://www.w3.org/2000/svg"
 width="276.000000pt" height="183.000000pt" viewBox="0 0 276.000000 183.000000"
 preserveAspectRatio="xMidYMid meet">

<g transform="translate(0.000000,183.000000) scale(0.100000,-0.100000)"
fill="#000000" stroke="none">
<path d="M0 1214 c0 -407 3 -613 10 -609 5 3 10 2 10 -4 0 -5 -6 -11 -13 -14
-9 -3 -9 -9 1 -26 7 -11 8 -21 3 -21 -16 0 -14 -449 1 -468 10 -13 10 -14 1
-8 -10 5 -13 -3 -13 -28 l0 -36 1380 0 1380 0 0 915 0 915 -1380 0 -1380 0 0
-616z m17 -136 c-3 -8 -6 -5 -6 6 -1 11 2 17 5 13 3 -3 4 -12 1 -19z"/>
</g>
</svg>
